# AST/ASF file generated using VICON BodyLanguage
# -----------------------------------------------
:version 1.10
:name VICON
:units
  mass 1.0
  length 0.45
  angle deg
:documentation
   .ast/.asf automatically generated from VICON data using
   VICON BodyBuilder and BodyLanguage model FoxedUp or BRILLIANT.MOD
:root
   order TX TY TZ RX RY RZ
   axis XYZ
   position 0 0 0  
   orientation 0 0 0 
:bonedata
  begin
     id 1 
     name lhipjoint
     direction 0.692814 -0.645514 0.321437 
     length 2.38754 
     axis 0 0 0  XYZ
  end
  begin
     id 2 
     name lfemur
     direction 0.34202 -0.939693 0  
     length 6.41921  
     axis 0 0 20  XYZ
    dof rx ry rz
    limits (-160.0 20.0)
           (-70.0 70.0)
           (-60.0 70.0)
  end
  begin
     id 3 
     name ltibia
     direction 0.34202 -0.939693 0   
     length 6.98247   
     axis 0 0 20   XYZ
    dof rx
    limits (-10.0 170.0)
  end
  begin
     id 4 
     name lfoot
     direction 0.0947186 -0.260237 0.960888   
     length 1.83034   
     axis -90 7.62852e-016 20   XYZ
    dof rx rz
    limits (-45.0 90.0)
           (-70.0 20.0)
  end
  begin
     id 5 
     name ltoes
     direction 1.53538e-011 -4.21952e-011 1   
     length 0.920499   
     axis -90 7.62852e-016 20   XYZ
    dof rx
    limits (-90.0 20.0)
  end
  begin
     id 6 
     name rhipjoint
     direction -0.631686 -0.693949 0.345555   
     length 2.2209  
     axis 0 0 0  XYZ 
  end
  begin
     id 7 
     name rfemur
     direction -0.34202 -0.939693 0   
     length 6.49542   
     axis 0 0 -20   XYZ
    dof rx ry rz
    limits (-160.0 20.0)
           (-70.0 70.0)
           (-70.0 60.0)
  end
  begin
     id 8 
     name rtibia
     direction -0.34202 -0.939693 0   
     length 7.21712   
     axis 0 0 -20   XYZ
    dof rx
    limits (-10.0 170.0)
 end
 begin
     id 9 
     name rfoot
     direction -0.0825378 -0.226771 0.970444   
     length 1.89724  
     axis -90 -7.62852e-016 -20   XYZ
    dof rx rz
    limits (-45.0 90.0)
           (-20.0 70.0)
  end
  begin
     id 10 
     name rtoes
     direction -1.53515e-011 -4.22016e-011 1   
     length 0.955868   
     axis -90 -7.62852e-016 -20   XYZ
    dof rx
    limits (-90.0 20.0)
  end
  begin
     id 11 
     name lowerback
     direction -0.0104711 0.984802 -0.173368   
     length 1.84931   
     axis 0 0 0   XYZ
    dof rx ry rz
    limits (-20.0 45.0)
           (-30.0 30.0)
           (-30.0 30.0)
  end
  begin
     id 12 
     name upperback
     direction -0.00286433 0.999996 -0.000382853   
     length 1.85768   
     axis 0 0 0   XYZ
    dof rx ry rz
    limits (-20.0 45.0)
           (-30.0 30.0)
           (-30.0 30.0)
  end
  begin
     id 13 
     name thorax
     direction 0.00167534 0.996793 0.0800069   
     length 1.92   
     axis 0 0 0   XYZ
    dof rx ry rz
    limits (-20.0 45.0)
           (-30.0 30.0)
           (-30.0 30.0)
  end
  begin
     id 14 
     name lowerneck
     direction -0.0672491 0.995415 0.068018   
     length 1.58923   
     axis 0 0 0   XYZ
    dof rx ry rz
    limits (-20.0 45.0)
           (-30.0 30.0)
           (-30.0 30.0)
  end
  begin
     id 15 
     name upperneck
     direction 0.0958019 0.982476 -0.159884   
     length 1.60189   
     axis 0 0 0   XYZ
    dof rx ry rz
    limits (-20.0 45.0)
           (-30.0 30.0)
           (-30.0 30.0)
  end
  begin
     id 16
     name head
     direction 0.032989 0.997338 -0.0650226  
     length 1.61681  
     axis 0 0 0   XYZ
    dof rx ry rz
    limits (-20.0 45.0)
           (-30.0 30.0)
           (-30.0 30.0)
  end
  begin
     id 17 
     name lclavicle
     direction 0.954279 0.298875 -0.00496069  
     length 2.99449  
     axis 0 0 0   XYZ
    dof ry rz
    limits (-20.0 10.0)
           (0.0 20.0)
  end
  begin
     id 18 
     name lhumerus
     direction 1 -4.48985e-011 -4.2057e-027   
     length 4.79185   
     axis 180 -30 -90   XYZ
    dof rx ry rz
    limits (-60.0 90.0)
           (-90.0 90.0)
           (-90.0 90.0)
  end
  begin
     id 19
     name lradius
     direction 1 -4.48945e-011 1.15441e-028   
     length 2.65553   
     axis 180 -30 -90   XYZ
    dof rx
    limits (-10.0 170.0)
  end
  begin
     id 20
     name lwrist
     direction 1 -4.4899e-011 4.8894e-028   
     length 1.32777   
     axis -2.56392e-016 90 90   XYZ
    dof ry
    limits (-180.0 0.0)
 end
  begin
     id 21 
     name lhand
     direction 1 -4.48908e-011 9.7788e-028   
     length 0.743904   
     axis -6.23971e-016 90 90   XYZ
    dof rx rz
    limits (-90.0 90.0)
           (-45.0 45.0)
  end
  begin
     id 22 
     name lfingers
     direction 1 -4.49068e-011 1.95576e-027   
     length 0.599754   
     axis -1.24794e-015 90 90   XYZ
    dof rx
    limits (0.0 90.0)
  end
  begin
     id 23
     name lthumb
     direction 0.707107 -6.34883e-011 0.707107   
     length 0.861131   
     axis -90 45 2.85299e-015   XYZ
    dof rx rz
    limits (-45.0 45.0)
           (-45.0 45.0)
  end
  begin
     id 24 
     name rclavicle
     direction -0.957921 0.286916 0.00811568   
     length 3.06817  
     axis 0 0 0   XYZ 
    dof ry rz
    limits (-10.0 20.0)
           (-20.0 0.0)
  end
  begin
     id 25 
     name rhumerus
     direction -1 -4.48971e-011 -3.07942e-027  
     length 4.77254   
     axis 180 30 90   XYZ
    dof rx ry rz
    limits (-90.0 60.0)
           (-90.0 90.0)
           (-90.0 90.0)
  end
  begin
     id 26 
     name rradius
     direction -1 -4.48957e-011 -9.6815e-028   
     length 2.75995   
     axis 180 30 90   XYZ
    dof rx
    limits (-10.0 170.0)
  end
  begin
     id 27 
     name rwrist
     direction -1 -4.48979e-011 4.8894e-028   
     length 1.37997   
     axis -2.56392e-016 -90 -90   XYZ
    dof ry
    limits (-180.0 0.0)
  end
  begin
     id 28
     name rhand
     direction -1 -4.48906e-011 9.7788e-028   
     length 0.701619   
     axis -6.23971e-016 -90 -90   XYZ
    dof rx rz
    limits (-90.0 90.0)
           (-45.0 45.0)
  end
  begin
     id 29
     name rfingers
     direction -1 -4.49018e-011 1.95576e-027   
     length 0.565663   
     axis -1.24794e-015 -90 -90   XYZ
    dof rx
    limits (0.0 90.0)
  end
  begin
     id 30
     name rthumb
     direction -0.707107 -6.34881e-011 0.707107   
     length 0.812183   
     axis -90 -45 -2.85299e-015   XYZ
    dof rx rz
    limits (-45.0 45.0)
           (-45.0 45.0)
  end
:hierarchy
  begin
    root lhipjoint rhipjoint lowerback
    lhipjoint lfemur
    lfemur ltibia
    ltibia lfoot
    lfoot ltoes
    rhipjoint rfemur
    rfemur rtibia
    rtibia rfoot
    rfoot rtoes
    lowerback upperback
    upperback thorax
    thorax lowerneck lclavicle rclavicle
    lowerneck upperneck
    upperneck head
    lclavicle lhumerus
    lhumerus lradius
    lradius lwrist
    lwrist lhand lthumb
    lhand lfingers
    rclavicle rhumerus
    rhumerus rradius
    rradius rwrist
    rwrist rhand rthumb
    rhand rfingers
  end

#!OML:ASF F:\VICON\USERDATA\INSTALL\rory3\rory3.ASF
:FULLY-SPECIFIED
:DEGREES
251
root 0.456301 15.7393 -0.814109 -3.43717 -6.94381 6.75932
lowerback 17.6583 -1.54239 8.98968
upperback 2.87567 0.545813 12.1445
thorax -6.87591 0.186707 8.15384
lowerneck -9.32129 -5.37204 -6.01946
upperneck 20.8247 -7.09002 3.04975
head 8.32299 -3.52254 1.30388
rclavicle -5.56597e-015 -1.24042e-013
rhumerus 2.50693 -27.4626 15.5705
rradius 46.3147
rwrist -31.5091
rhand 6.69413 11.0268
rfingers 7.12502
rthumb 31.9845 -16.1823
lclavicle -5.56597e-015 -1.24042e-013
lhumerus -22.6808 5.15138 -15.2217
lradius 46.6412
lwrist 49.614
lhand 9.12479 19.9324
lfingers 7.12502
lthumb 34.2958 46.65
rfemur -12.9863 14.0655 8.48885
rtibia 35.9023
rfoot -16.7489 -8.45684
rtoes -17.7057
lfemur -3.75129 -1.77724 -24.4341
ltibia 22.0469
lfoot -11.0923 6.29326
ltoes -11.4559
252
root 0.469014 15.7408 -0.805939 -3.4521 -7.0463 7.16319
lowerback 17.6349 -1.50609 8.82182
upperback 2.88207 0.553821 12.1086
thorax -6.85763 0.194314 8.20387
lowerneck -9.47661 -5.40568 -6.00166
upperneck 20.8501 -7.14031 3.08873
head 8.36307 -3.53879 1.30402
rclavicle -3.97569e-015 7.31528e-014
rhumerus 2.47783 -27.617 15.318
rradius 46.1096
rwrist -30.9499
rhand 6.81572 11.1649
rfingers 7.12502
rthumb 32.1003 -16.0209
lclavicle -3.97569e-015 7.31528e-014
lhumerus -22.4906 5.3172 -15.2891
lradius 46.5953
lwrist 49.6646
lhand 9.2383 19.977
lfingers 7.12502
lthumb 34.4035 46.6702
rfemur -13.1097 14.0953 7.96587
rtibia 35.9908
rfoot -16.7919 -8.36652
rtoes -17.4979
lfemur -3.6145 -1.63673 -24.9239
ltibia 21.7843
lfoot -11.0068 6.34609
ltoes -11.67
253
root 0.479531 15.7411 -0.797561 -3.53414 -7.13347 7.54788
lowerback 17.678 -1.48926 8.63664
upperback 2.86953 0.547745 12.0736
thorax -6.89604 0.195406 8.27344
lowerneck -9.45193 -5.43085 -5.99233
upperneck 20.8277 -7.18314 3.11099
head 8.3536 -3.55638 1.30609
rclavicle 3.97569e-014 -1.90833e-014
rhumerus 2.6633 -28.1493 14.7975
rradius 45.8767
rwrist -30.0926
rhand 7.17361 11.1788
rfingers 7.12502
rthumb 32.4409 -15.9377
lclavicle 3.97569e-014 -1.90833e-014
lhumerus -22.3696 5.3126 -15.3963
lradius 46.6349
lwrist 49.9502
lhand 9.03606 19.8242
lfingers 7.12502
lthumb 34.2115 46.5608
rfemur -13.156 14.1739 7.50155
rtibia 36.1115
rfoot -16.8224 -8.33955
rtoes -17.4805
lfemur -3.38774 -1.55546 -25.3891
ltibia 21.4931
lfoot -10.923 6.4432
ltoes -11.7779
254
root 0.487674 15.7403 -0.793727 -3.54132 -7.26316 7.76533
lowerback 17.8142 -1.50157 8.53041
upperback 2.77091 0.552652 12.1101
thorax -7.08264 0.200553 8.39024
lowerneck -9.2735 -5.40631 -6.06977
upperneck 20.7822 -7.14536 3.10861
head 8.30696 -3.54765 1.32723
rclavicle -3.97569e-014 -1.11319e-013
rhumerus 2.85811 -28.2069 14.3961
rradius 45.7401
rwrist -29.7396
rhand 7.51926 11.111
rfingers 7.12502
rthumb 32.7698 -15.9375
lclavicle -3.97569e-014 -1.11319e-013
lhumerus -22.3815 5.09644 -15.5128
lradius 46.7657
lwrist 50.1636
lhand 8.89995 19.784
lfingers 7.12502
lthumb 34.0822 46.5494
rfemur -13.2778 14.3403 7.22694
rtibia 36.2452
rfoot -16.8678 -8.38475
rtoes -17.5904
lfemur -3.27951 -1.39381 -25.6371
ltibia 21.2607
lfoot -10.7575 6.42703
ltoes -11.2962
255
root 0.495201 15.7393 -0.792082 -3.55178 -7.38926 7.83413
lowerback 17.9668 -1.52934 8.5239
upperback 2.70258 0.558222 12.2044
thorax -7.24487 0.204515 8.51753
lowerneck -9.20421 -5.38617 -6.17097
upperneck 20.8146 -7.09569 3.05743
head 8.30517 -3.53826 1.33364
rclavicle 3.10104e-014 -1.17681e-013
rhumerus 2.92466 -27.9057 14.2026
rradius 45.6591
rwrist -29.7009
rhand 7.59693 11.136
rfingers 7.12502
rthumb 32.8437 -15.8971
lclavicle 3.10104e-014 -1.17681e-013
lhumerus -22.4101 4.91031 -15.5894
lradius 46.8426
lwrist 50.3154
lhand 9.11335 19.7391
lfingers 7.12502
lthumb 34.2849 46.4592
rfemur -13.376 14.4808 7.12796
rtibia 36.3646
rfoot -16.9009 -8.3933
rtoes -17.6656
lfemur -3.23511 -1.20414 -25.712
ltibia 21.1871
lfoot -10.7165 6.34701
ltoes -11.1417
256
root 0.502113 15.7337 -0.792744 -3.57375 -7.51734 7.89581
lowerback 17.9765 -1.54475 8.52803
upperback 2.7442 0.536765 12.2617
thorax -7.20277 0.194448 8.58619
lowerneck -9.14243 -5.37244 -6.23846
upperneck 20.7459 -7.07713 3.10705
head 8.27439 -3.53091 1.36526
rclavicle -8.74653e-015 6.99722e-014
rhumerus 2.94099 -27.8245 13.9254
rradius 45.5265
rwrist -29.4851
rhand 7.48799 11.1807
rfingers 7.12502
rthumb 32.7401 -15.874
lclavicle -8.74653e-015 6.99722e-014
lhumerus -22.4096 5.08101 -15.6989
lradius 46.8908
lwrist 50.373
lhand 9.34758 19.732
lfingers 7.12502
lthumb 34.5073 46.4017
rfemur -13.4648 14.5714 7.0377
rtibia 36.4844
rfoot -16.9533 -8.36934
rtoes -18.0536
lfemur -3.23504 -1.01448 -25.7816
ltibia 21.1971
lfoot -10.7146 6.29542
ltoes -11.3089
257
root 0.510275 15.7298 -0.793334 -3.58535 -7.66847 7.88995
lowerback 17.9933 -1.56044 8.61681
upperback 2.78546 0.530555 12.2978
thorax -7.16518 0.18893 8.57764
lowerneck -9.04354 -5.37142 -6.27363
upperneck 20.6328 -7.08811 3.18373
head 8.22308 -3.53289 1.39873
rclavicle 7.15625e-015 -3.18055e-014
rhumerus 2.83943 -27.6475 13.711
rradius 45.4353
rwrist -29.3894
rhand 7.43711 11.1033
rfingers 7.12502
rthumb 32.6917 -15.9615
lclavicle 7.15625e-015 -3.18055e-014
lhumerus -22.318 5.31614 -15.8011
lradius 46.9066
lwrist 50.3128
lhand 9.39814 19.7499
lfingers 7.12502
lthumb 34.5553 46.4087
rfemur -13.5673 14.6747 7.01546
rtibia 36.6041
rfoot -16.9971 -8.32113
rtoes -18.3268
lfemur -3.25244 -0.797149 -25.7765
ltibia 21.2355
lfoot -10.7231 6.2366
ltoes -11.2229
258
root 0.51956 15.7291 -0.791049 -3.63607 -7.86268 8.02186
lowerback 18.0792 -1.54445 8.5725
upperback 2.82749 0.548039 12.2809
thorax -7.16715 0.197579 8.58104
lowerneck -9.08799 -5.37948 -6.20694
upperneck 20.6078 -7.09652 3.13207
head 8.2186 -3.53619 1.36879
rclavicle -2.14687e-014 -8.26944e-014
rhumerus 2.73748 -27.492 13.5236
rradius 45.3024
rwrist -29.1938
rhand 7.73094 11.115
rfingers 7.12502
rthumb 32.9712 -15.8913
lclavicle -2.14687e-014 -8.26944e-014
lhumerus -22.2026 5.44022 -15.9049
lradius 46.9174
lwrist 50.3985
lhand 9.52465 19.8084
lfingers 7.12502
lthumb 34.6753 46.4397
rfemur -13.7022 14.7877 6.82817
rtibia 36.7363
rfoot -17.0385 -8.19368
rtoes -17.637
lfemur -3.23627 -0.538542 -25.9346
ltibia 21.2858
lfoot -10.7602 6.24723
ltoes -11.5667
259
root 0.528352 15.7285 -0.789139 -3.65664 -8.03591 8.09547
lowerback 18.2087 -1.53252 8.54938
upperback 2.82989 0.580873 12.2965
thorax -7.23896 0.213703 8.61212
lowerneck -9.15642 -5.37411 -6.19561
upperneck 20.6371 -7.07439 3.06578
head 8.23696 -3.5305 1.34519
rclavicle -2.3059e-014 6.67916e-014
rhumerus 2.74736 -27.5302 13.3332
rradius 45.0703
rwrist -28.5994
rhand 8.33364 11.171
rfingers 7.12502
rthumb 33.5442 -15.7128
lclavicle -2.3059e-014 6.67916e-014
lhumerus -22.0862 5.62116 -15.9846
lradius 46.9054
lwrist 50.5523
lhand 9.85184 19.9313
lfingers 7.12502
lthumb 34.9858 46.4907
rfemur -13.8545 14.9142 6.70398
rtibia 36.8776
rfoot -17.0987 -8.07728
rtoes -17.0262
lfemur -3.23756 -0.340949 -26.0231
ltibia 21.3273
lfoot -10.8571 6.20648
ltoes -11.4393
260
root 0.53489 15.7259 -0.787987 -3.64779 -8.12836 8.15486
lowerback 18.3101 -1.53703 8.46935
upperback 2.80631 0.584082 12.3507
thorax -7.32309 0.218117 8.72949
lowerneck -9.21414 -5.35849 -6.34547
upperneck 20.6687 -7.02816 3.08206
head 8.26259 -3.51815 1.37802
rclavicle 1.59028e-015 1.17681e-013
rhumerus 2.75039 -27.3659 13.2463
rradius 44.898
rwrist -28.2768
rhand 8.52582 11.1674
rfingers 7.12502
rthumb 33.7268 -15.6766
lclavicle 1.59028e-015 1.17681e-013
lhumerus -22.0352 5.81953 -16.0149
lradius 46.8575
lwrist 50.6258
lhand 10.0589 19.8461
lfingers 7.12502
lthumb 35.1822 46.3594
rfemur -13.979 14.9806 6.60582
rtibia 37.0136
rfoot -17.14 -8.0593
rtoes -17.116
lfemur -3.28185 -0.176485 -26.0884
ltibia 21.4013
lfoot -10.9155 6.12073
ltoes -11.1466
261
root 0.539416 15.722 -0.78853 -3.6117 -8.153 8.27355
lowerback 18.3163 -1.55337 8.34423
upperback 2.78992 0.541454 12.3472
thorax -7.34201 0.200928 8.80988
lowerneck -9.19251 -5.34603 -6.41129
upperneck 20.605 -7.0014 3.09499
head 8.23903 -3.50984 1.39685
rclavicle -2.06736e-014 2.54444e-014
rhumerus 2.6158 -27.0708 13.1447
rradius 44.8276
rwrist -28.2156
rhand 8.40487 11.0721
rfingers 7.12502
rthumb 33.6119 -15.7969
lclavicle -2.06736e-014 2.54444e-014
lhumerus -21.9918 5.88728 -16.0786
lradius 46.8709
lwrist 50.7898
lhand 9.98236 19.7272
lfingers 7.12502
lthumb 35.1096 46.2576
rfemur -14.1293 14.9877 6.43832
rtibia 37.1458
rfoot -17.1756 -8.04798
rtoes -17.0515
lfemur -3.42906 -0.0600663 -26.2115
ltibia 21.5793
lfoot -10.996 6.02588
ltoes -11.0794
262
root 0.543933 15.7169 -0.789819 -3.5411 -8.186 8.24678
lowerback 18.3769 -1.5951 8.36496
upperback 2.73857 0.508476 12.3409
thorax -7.4293 0.184274 8.80636
lowerneck -9.12642 -5.32988 -6.34753
upperneck 20.5647 -6.97539 3.00957
head 8.20653 -3.50201 1.36297
rclavicle -2.8625e-014 7.31528e-014
rhumerus 2.51479 -26.9136 12.9178
rradius 44.7275
rwrist -27.9871
rhand 8.41764 11.1359
rfingers 7.12502
rthumb 33.624 -15.7305
lclavicle -2.8625e-014 7.31528e-014
lhumerus -21.9177 6.06347 -16.195
lradius 46.8663
lwrist 50.8168
lhand 9.95941 19.6947
lfingers 7.12502
lthumb 35.0878 46.2302
rfemur -14.2733 14.9593 6.43035
rtibia 37.2617
rfoot -17.1952 -8.04679
rtoes -17.6018
lfemur -3.64894 0.00803689 -26.1787
ltibia 21.8263
lfoot -11.0787 5.96672
ltoes -10.96
263
root 0.549174 15.7113 -0.790922 -3.50583 -8.24025 8.18839
lowerback 18.4963 -1.64112 8.39304
upperback 2.67327 0.483414 12.3339
thorax -7.56531 0.171248 8.80066
lowerneck -9.06871 -5.31102 -6.32475
upperneck 20.6242 -6.93579 2.89464
head 8.20912 -3.49373 1.32649
rclavicle 2.14687e-014 2.09917e-013
rhumerus 2.42244 -26.7037 12.7045
rradius 44.6357
rwrist -27.7281
rhand 8.55618 11.2052
rfingers 7.12502
rthumb 33.7557 -15.6325
lclavicle 2.14687e-014 2.09917e-013
lhumerus -21.8128 6.10692 -16.28
lradius 46.8575
lwrist 50.8856
lhand 9.81678 19.6842
lfingers 7.12502
lthumb 34.9525 46.2513
rfemur -14.365 14.9653 6.46841
rtibia 37.371
rfoot -17.274 -7.99336
rtoes -17.9193
lfemur -3.83275 0.149705 -26.1103
ltibia 22.0878
lfoot -11.1945 5.87583
ltoes -11.1
264
root 0.554167 15.7074 -0.7901 -3.52594 -8.33442 8.14737
lowerback 18.6105 -1.68117 8.36535
upperback 2.64167 0.448924 12.335
thorax -7.66049 0.155222 8.83667
lowerneck -8.97139 -5.28547 -6.40407
upperneck 20.6404 -6.88047 2.82792
head 8.19511 -3.48179 1.32557
rclavicle -1.11319e-014 -1.01778e-013
rhumerus 2.35459 -26.4488 12.5728
rradius 44.5395
rwrist -27.5107
rhand 8.65848 11.2219
rfingers 7.12502
rthumb 33.8529 -15.5944
lclavicle -1.11319e-014 -1.01778e-013
lhumerus -21.7617 6.06714 -16.344
lradius 46.8554
lwrist 51.0331
lhand 9.65164 19.75
lfingers 7.12502
lthumb 34.7959 46.3535
rfemur -14.4338 14.9654 6.49885
rtibia 37.4618
rfoot -17.3292 -7.91231
rtoes -17.5003
lfemur -3.96298 0.436614 -26.0498
ltibia 22.3852
lfoot -11.2975 5.68742
ltoes -11.1724
265
root 0.558408 15.7046 -0.789941 -3.51525 -8.44481 8.06329
lowerback 18.7328 -1.69516 8.38337
upperback 2.6013 0.460679 12.3367
thorax -7.774 0.160219 8.83613
lowerneck -8.90532 -5.2811 -6.48849
upperneck 20.6928 -6.85379 2.7654
head 8.20075 -3.48287 1.32272
rclavicle -2.06736e-014 -3.81667e-014
rhumerus 2.24939 -26.3104 12.4928
rradius 44.4013
rwrist -27.2562
rhand 8.80914 11.3479
rfingers 7.12502
rthumb 33.996 -15.4368
lclavicle -2.06736e-014 -3.81667e-014
lhumerus -21.6594 6.1343 -16.3867
lradius 46.863
lwrist 51.2169
lhand 9.69787 19.7894
lfingers 7.12502
lthumb 34.8397 46.3828
rfemur -14.5503 14.9094 6.56815
rtibia 37.5617
rfoot -17.3559 -7.82466
rtoes -17.301
lfemur -4.1102 0.764064 -25.9302
ltibia 22.6749
lfoot -11.3879 5.42566
ltoes -10.9303
